<svg version="1.2" xmlns="http://www.w3.org/2000/svg" viewBox="0 0 1254 1254" width="1254" height="1254">
	<style>
		.s0 { opacity: .99;fill: #03285d }
		.s1 { opacity: .99;fill: #6d6342 }
		.s2 { opacity: .99;fill: #c88c07 }
	</style>
	<g id="Background">
		<path id="Path 54" class="s0" d="m858.58 883.36c-3.23 2.4-7.63 6.56-9.76 9.25-2.14 2.69-5.45 8.04-7.35 11.89-1.91 3.85-3.93 9.48-4.48 12.5-0.56 3.02-1.01 6.85-1 8.5 0.01 2.28-1.6 4.84-6.74 10.7-3.71 4.23-6.88 7.61-7.05 7.5-0.16-0.11 0.64-3.35 1.77-7.2 1.14-3.85 2.06-9.36 2.05-12.25-0.01-2.89-0.47-7.5-1.02-10.25-0.55-2.75-1.34-5.02-1.75-5.04-0.41-0.02-2.66 2-5 4.5-2.34 2.5-5.15 6.34-6.25 8.54-1.1 2.2-2.71 7.04-3.58 10.75-1.08 4.58-1.36 8.52-0.89 12.25 0.38 3.02 1.09 6.51 1.58 7.75 0.79 2.01 0 2.96-7.36 8.79-4.54 3.59-10.16 7.64-12.5 9-2.34 1.35-4.59 2.2-5 1.88-0.41-0.32-0.08-1.11 0.75-1.75 0.83-0.64 2.71-3.42 4.19-6.17 1.48-2.75 3.39-7.7 4.25-11 0.86-3.3 1.57-8.81 1.57-12.25-0.01-4.31-0.4-6.26-1.26-6.29-0.69-0.02-3.73 1.97-6.75 4.42-3.03 2.46-7.16 6.64-9.18 9.3-2.02 2.65-4.92 7.52-6.44 10.82-2.03 4.41-2.91 8.21-3.32 14.36-0.4 5.97-0.99 8.58-2.06 9.15-0.83 0.43-6.11 2.41-11.75 4.39-5.64 1.98-10.92 3.6-11.75 3.6q-1.49-0.01 1.64-3.25c1.73-1.79 4.13-4.83 5.34-6.75 1.2-1.92 2.95-5.75 3.87-8.5 0.92-2.75 1.67-7.14 1.66-9.75-0.01-4.45-0.15-4.71-2.26-4.11-1.24 0.35-4.5 2.08-7.25 3.85-2.75 1.76-7.06 5.41-9.58 8.11-2.52 2.69-5.56 6.81-6.75 9.15-1.2 2.34-2.78 6.61-3.53 9.5l-1.36 5.25c-10.68 1.22-16.26 1.89-19.28 2.29l-5.5 0.71c-0.39 6.59-0.28 8.5 0 8.5 0.27 0 6.35-1.13 13.5-2.5l13-2.5c9.69 8.79 14.97 12.48 18 13.88 4.24 1.94 7.57 2.61 14.5 2.91 5.22 0.23 10.26-0.08 12-0.73l3-1.12c-8.53-8.49-13.48-12.26-16.5-13.86-3.03-1.59-7.53-3.45-10-4.13l-4.5-1.24c6.97-1.9 12.15-3.64 16-5.09 5.76-2.17 7.28-2.41 8.6-1.38 0.88 0.69 3.58 2.74 6 4.55 2.42 1.81 6.87 4.22 9.9 5.35 4.46 1.66 7.02 1.96 13.5 1.55 4.4-0.28 9.69-0.99 11.75-1.6 2.06-0.6 3.75-1.54 3.75-2.09 0-0.55-1.46-2.33-3.25-3.96-1.79-1.63-5.73-4.3-8.75-5.94-3.37-1.82-8.58-3.48-13.45-4.29l-7.94-1.31 17.39-10.5c13.77 4.63 16.97 5.13 22.07 4.85 5.25-0.28 8.26-1.18 15-4.51 4.64-2.29 9.22-5.11 10.18-6.25 1.72-2.06 1.66-2.12-4-4.17-3.16-1.14-7.78-2.33-10.25-2.64-2.48-0.31-7.42 0-11 0.69-3.58 0.69-7.17 1.48-8 1.76-0.83 0.28 2.07-2.8 6.44-6.86l7.93-7.37c23.67 0 24.42-0.13 30.64-3.21 3.57-1.77 8.6-4.92 11.19-7 2.58-2.09 4.57-4.24 4.4-4.79-0.16-0.55-2.5-1.58-5.19-2.29-2.7-0.71-7.83-1.12-11.41-0.9-3.63 0.21-8.71 1.33-11.5 2.54-2.75 1.19-5.11 1.93-5.25 1.65-0.14-0.27 2.07-2.64 4.91-5.25 2.84-2.61 6.97-6.55 9.19-8.75 2.22-2.2 5.64-6.48 7.61-9.5 1.97-3.02 4.34-8.2 5.27-11.5 0.93-3.3 1.82-8.88 1.98-12.39 0.17-3.71-0.14-6.55-0.73-6.75-0.56-0.2-3.66 1.6-6.9 4z"/>
		<path id="Path 55" class="s0" d="m386.36 878.74c-0.38 0.33-0.62 2.54-0.53 4.93 0.09 2.38 0.66 6.69 1.27 9.58 0.6 2.89 2.58 8.4 4.39 12.25 2.01 4.27 5.39 9.14 8.67 12.5 2.96 3.02 7.84 7.62 10.86 10.22 3.01 2.6 5.25 4.94 4.98 5.21-0.27 0.28-3.65-0.6-7.5-1.94-4.23-1.48-9.28-2.46-12.75-2.47-3.16-0.01-8.11 0.48-11 1.09-2.89 0.61-5.61 1.39-6.06 1.75-0.45 0.35 1.35 2.59 4 4.97 2.65 2.37 7.73 5.74 11.31 7.47 5.2 2.52 8.1 3.23 14.5 3.55 4.4 0.22 10.48-0.12 13.5-0.74l5.5-1.14c7.75 7.49 11.8 11.17 14 13.02 3.44 2.88 3.65 3.27 1.5 2.75-1.38-0.33-4.3-1.07-6.5-1.65-2.2-0.57-6.48-1.04-9.5-1.03-3.04 0.01-8.38 1-11.94 2.23-3.54 1.21-6.58 2.77-6.75 3.46-0.17 0.69 2.28 2.95 5.44 5.04 3.16 2.08 8.67 4.61 12.25 5.62 4.69 1.33 8.31 1.69 13 1.29 3.57-0.31 9.09-1.49 12.25-2.63l5.75-2.07c12.01 7.19 16.4 9.62 17.5 10.02 1.42 0.53 0.27 0.94-4 1.44-3.3 0.38-8.02 1.33-10.5 2.1-2.48 0.77-6.52 2.72-9 4.33-2.48 1.61-5.85 4.06-7.5 5.45l-3 2.52c6.98 3.1 10.67 3.57 18.5 3.6 9.15 0.03 11.08-0.26 15-2.32 2.48-1.3 6.75-4.1 9.5-6.22l5-3.84c14.34 5.36 19.17 6.92 20 6.92 0.83 0 1.33 0.34 1.12 0.75-0.21 0.41-2.12 1.07-4.25 1.46-2.13 0.39-6.57 2.47-9.87 4.62-3.3 2.16-8.02 5.99-10.5 8.52-2.48 2.54-4.12 4.95-3.66 5.38 0.45 0.42 5.85 0.77 12 0.77 10.27 0 11.6-0.23 16.66-2.81 3.02-1.55 7.98-5.28 11-8.29l5.5-5.47c17.05 3.21 23.01 4.35 24.25 4.61 1.24 0.25 2.48 0.01 2.75-0.54 0.27-0.55 0.27-2.58 0-4.5-0.48-3.35-0.7-3.52-5.25-3.97-2.61-0.25-8.35-0.73-12.75-1.06l-8-0.59c-1.2-6.49-2.66-10.74-4.02-13.63-1.37-2.89-4.62-7.57-7.23-10.4-2.61-2.84-7-6.61-9.75-8.4-2.75-1.79-6.31-3.63-7.92-4.1l-2.92-0.85c1.2 9.3 2.37 14.25 3.37 17 1 2.75 4.11 7.59 6.9 10.75 2.79 3.16 4.62 5.75 4.07 5.75-0.55 0-5.61-1.62-11.25-3.6-5.64-1.98-11.49-4.23-13-5-2.52-1.28-2.75-1.88-2.74-7.15 0-3.16-0.7-8.45-1.57-11.75-0.86-3.3-2.51-7.58-3.67-9.5-1.16-1.92-3.53-5.3-5.27-7.5-1.74-2.2-5.53-5.8-8.43-8-4.41-3.35-5.42-3.76-6.23-2.5-0.53 0.83-0.74 4.87-0.46 9 0.27 4.12 1.42 9.98 2.55 13 1.13 3.02 3.39 7.52 5.02 10 1.63 2.48 2.76 4.61 2.51 4.75-0.25 0.14-2.37-0.94-4.71-2.39-2.34-1.45-7.85-5.53-12.25-9.08l-8-6.45c2.09-9.56 2.51-15.25 2.28-18.83-0.29-4.47-1.37-8.53-3.46-13-1.67-3.58-4.83-8.52-7.03-11l-4-4.5c-2.13 6.25-2.71 11.94-2.7 17 0.03 6.86 0.55 10.31 2.22 14.5 1.2 3.02 2.19 5.61 2.19 5.75 0 0.14-0.55-0.09-1.22-0.5-0.68-0.41-4.07-4.13-7.53-8.25-5.48-6.51-6.31-8.03-6.28-11.5 0.02-2.2-0.65-6.7-1.5-10-0.84-3.3-2.74-8.48-4.23-11.5-1.48-3.02-5.4-8.36-8.71-11.86-3.32-3.5-8.16-7.85-10.75-9.68-2.6-1.83-5.04-3.05-5.42-2.72z"/>
		<path id="Path 56" fill-rule="evenodd" class="s0" d="m543.88 841c2.27 0 5.36 0.63 6.87 1.4 1.51 0.76 3.53 2.23 4.47 3.25 0.95 1.02 2.18 3.43 2.74 5.35 0.65 2.26 0.68 4.74 0.07 7-0.52 1.92-2.35 4.85-4.07 6.5-2.38 2.28-4.25 3.08-7.79 3.34-3.62 0.26-5.46-0.19-8.17-2.01-1.92-1.3-4.34-4.15-5.38-6.34-1.36-2.9-1.67-4.94-1.14-7.49 0.43-2.05 2.3-5.06 4.51-7.25 3.13-3.11 4.47-3.75 7.89-3.75zm-4.63 13.74c0.2 2.99 0.8 4 3 5 2.1 0.96 3.28 0.99 5 0.11 1.24-0.63 2.58-1.64 2.98-2.25 0.41-0.6 0.75-2.34 0.75-3.85 0.01-1.75-0.8-3.3-2.23-4.26-1.24-0.83-2.92-1.51-3.75-1.51-0.83 0-2.51 0.68-3.75 1.51-1.76 1.18-2.2 2.32-2 5.25z"/>
		<path id="Path 57" fill-rule="evenodd" class="s0" d="m513.5 808.5c2.2 0.34 5.55 1.83 7.44 3.31 1.89 1.48 4.07 4.27 4.86 6.19 0.88 2.18 1.21 5.2 0.87 8-0.3 2.48-1.41 5.63-2.46 7-1.06 1.37-3.22 3.3-4.81 4.27-1.6 0.98-4.92 1.83-7.4 1.89-2.75 0.07-5.79-0.62-7.82-1.78-1.82-1.03-4.16-3.23-5.19-4.88-1.03-1.65-2.15-4.8-2.49-7-0.47-3.07-0.08-5.05 1.69-8.5 1.68-3.26 3.55-5.13 6.81-6.81 3.45-1.77 5.43-2.16 8.5-1.69zm-8.68 15.33c0.1 1.74 1.08 4.07 2.18 5.17 1.1 1.1 3.15 2 4.55 2 1.47 0 3.63-1.15 5.15-2.75 2.08-2.2 2.47-3.35 1.94-5.75-0.37-1.65-1.45-3.57-2.4-4.27-0.96-0.69-3.14-1.26-4.84-1.25-1.71 0.01-3.93 0.84-4.93 1.85-1.12 1.11-1.76 3.06-1.65 5z"/>
		<path id="Path 58" fill-rule="evenodd" class="s0" d="m561 801c1.38 0 3.96 0.91 5.75 2 1.79 1.1 3.99 3.62 4.89 5.6 1.14 2.51 1.4 4.57 0.86 6.75-0.42 1.73-1.34 4.05-2.04 5.15-0.69 1.1-2.88 2.79-4.86 3.75-2.24 1.09-4.83 1.55-6.85 1.23-1.8-0.3-4.7-1.96-6.5-3.75-1.95-1.94-3.47-4.63-3.8-6.73-0.39-2.43 0.04-4.57 1.39-7 1.07-1.92 3.45-4.29 5.3-5.25 1.85-0.97 4.49-1.75 5.86-1.75zm-5.5 13.77c0.55 1.47 2.21 3.14 3.7 3.7 2.22 0.85 3.06 0.68 4.78-0.97 1.15-1.1 2.09-2.9 2.09-4 0-1.1-0.81-2.78-1.79-3.72-0.98-0.95-2.73-1.74-3.88-1.75-1.16-0.02-2.96 0.89-4 2.02-1.53 1.66-1.71 2.57-0.9 4.72z"/>
		<path id="Path 59" class="s0" d="m620.96 802.63c-1.21 1.47-2.12 3.91-2.06 5.5 0.05 1.62 1.19 3.96 2.6 5.37 1.48 1.48 3.62 2.49 5.25 2.47 1.51-0.02 3.46-0.58 4.34-1.25 0.87-0.67 2.11-2.23 2.75-3.47 0.64-1.24 1.18-3.04 1.19-4 0.02-0.96-0.88-2.99-2-4.5-1.62-2.19-2.83-2.75-5.96-2.75-3.04 0-4.44 0.6-6.11 2.63z"/>
		<path id="Path 60" class="s1" d="m624.5 731.67c-0.46 0.36-0.76 5.54-0.67 11.5 0.09 5.96 0.65 12.07 1.24 13.58 1.05 2.69 1.11 2.7 2.52 0.75 1.07-1.49 1.44-5.15 1.43-14.25-0.02-11.21-0.18-12.25-1.85-12.25-1.01 0-2.21 0.3-2.67 0.67z"/>
		<path id="Path 61" fill-rule="evenodd" class="s0" d="m672.5 521.06c2.75-0.05 7.36 0.6 10.25 1.43 2.89 0.83 6.9 2.97 8.91 4.76 2.02 1.79 4.48 5.05 5.48 7.25 1 2.2 1.83 6.25 1.85 9 0.02 2.75-0.75 7.25-1.7 10-1.07 3.07-3.68 7.06-6.77 10.34-2.97 3.16-7.46 6.53-11.02 8.26-3.3 1.61-8.48 3.42-11.5 4.03-3.02 0.62-8.65 0.87-12.5 0.56-3.85-0.3-10.67-1.6-23.31-5.19l-0.61 3c-0.33 1.65-0.6 5.02-0.59 7.5 0.01 2.48 0.47 6.19 1.02 8.25 0.54 2.06 2.9 5.8 5.24 8.31 2.78 2.98 6.07 5.23 9.5 6.5 3.67 1.36 7.81 1.94 13.75 1.94 4.67 0 8.49 0.11 8.49 0.25-0.01 0.14-0.87 2.95-1.9 6.25-1.04 3.3-2.49 6.28-3.24 6.63-0.74 0.35-5.85 1.33-11.35 2.18-5.5 0.86-13.05 2.6-23.56 6.19l0.06 69.5 3.25-0.01c1.79-0.01 6.17-0.71 9.75-1.55 3.58-0.84 10.1-3.29 14.5-5.44 4.4-2.16 11.12-6.3 14.94-9.21 3.82-2.91 9.22-8.11 12-11.56 2.78-3.46 5.4-6.27 5.81-6.25 0.41 0.01 1.06 1.71 1.45 3.77 0.38 2.06 0.56 4.65 0.39 5.75-0.17 1.1-1.44 4.25-2.82 7-1.38 2.75-4.43 7.7-6.78 11-2.34 3.3-7.13 8.73-10.63 12.06-3.5 3.33-8.61 7.58-11.36 9.45-2.75 1.86-8.15 4.84-12 6.63-3.85 1.78-10.15 4.01-14 4.95-4.42 1.08-10.86 1.71-17.5 1.69-8.49-0.03-12.03-0.53-18.5-2.61-4.4-1.42-10.7-4.32-14-6.46-3.3-2.14-7.91-5.98-10.25-8.55-2.34-2.56-5.54-7.25-7.12-10.41-1.59-3.16-3.39-8.11-4-11-0.62-2.89-1.13-7.95-1.13-11.25 0-3.3 0.49-8.36 1.09-11.25 0.6-2.89 2.8-8.85 4.89-13.25 2.7-5.69 5.92-10.27 11.16-15.87 4.05-4.33 10.51-9.97 14.36-12.53 3.85-2.56 10.47-6.21 22.4-11.6l-3.64-4c-2-2.2-4.44-5.8-5.41-8-0.98-2.2-2.07-6.02-2.42-8.5-0.36-2.48-0.1-7.2 0.58-10.5 0.67-3.3 2.52-8.59 4.11-11.75 1.58-3.16 2.77-5.92 2.63-6.12-0.14-0.2-2.5-1.36-5.25-2.56-2.75-1.21-7.7-2.84-11-3.62-3.3-0.78-7.58-1.44-9.5-1.46-1.92-0.02-6.65 0.94-10.5 2.13-5.86 1.82-8.02 3.16-19.64 14.38l-3.91-2c-3.09-1.58-3.79-2.42-3.33-4 0.32-1.1 2.07-5.15 3.88-9 1.81-3.85 5.29-9.25 7.73-12 2.44-2.75 6.65-6.44 9.36-8.2 2.7-1.76 7.83-3.95 11.41-4.87 4.31-1.11 8.52-1.49 12.5-1.13 3.3 0.3 8.92 1.52 12.5 2.7 3.58 1.19 9.99 4.15 22 11l4.81-4.25c2.64-2.34 7.25-5.9 10.25-7.91 2.99-2.01 7.69-4.64 10.44-5.83 2.75-1.19 7.25-2.78 10-3.52 2.75-0.75 7.25-1.39 10-1.43zm-14.92 19.72c-2.7 1.49-7.09 4.63-9.75 6.97-2.66 2.34-4.83 4.7-4.83 5.25 0 0.55 2.36 1.78 5.25 2.74 3.2 1.05 8.18 1.71 12.75 1.68 5.84-0.04 8.6-0.59 12.49-2.49 2.97-1.44 5.92-3.85 7.28-5.93 1.26-1.93 2.27-4.29 2.26-5.25-0.02-0.96-1.04-2.83-2.28-4.15-1.26-1.34-3.79-2.59-5.75-2.84-1.92-0.24-5.52-0.05-8 0.43-2.48 0.48-6.71 2.09-9.42 3.59zm-52.38 103.72c-1.9 2.2-4.84 6.92-6.54 10.5-2.51 5.29-3.09 7.8-3.12 13.5-0.02 4.24 0.63 8.78 1.66 11.5 1.02 2.71 3.61 6.27 6.5 8.95 2.64 2.45 6.6 5.21 8.8 6.14 2.2 0.92 5.69 1.96 7.75 2.3l3.75 0.61c0-51.92-0.34-66.99-0.75-66.97-0.41 0.02-3.87 2.16-7.68 4.75-3.8 2.6-8.47 6.52-10.37 8.72z"/>
		<path id="Path 62" class="s2" d="m830 590v114c-14.34-1.1-25.02-1.37-33-1.31-7.98 0.06-18.33 0.63-23 1.27-4.67 0.64-11.88 1.84-16 2.66-4.13 0.82-12.45 3.03-18.5 4.89-6.05 1.87-15.73 5.71-21.5 8.52-5.77 2.82-12.75 6.53-15.5 8.25-2.75 1.73-8.38 5.68-12.5 8.78-4.13 3.1-10.16 8.52-13.42 12.04-3.25 3.52-7.52 8.77-9.5 11.66-1.97 2.89-3.35 5.5-3.08 5.79 0.27 0.28 3.42-1.16 7-3.21 3.58-2.05 11.9-6.29 18.5-9.41 6.6-3.13 18.08-7.74 25.5-10.23 7.42-2.5 18.9-5.67 25.5-7.04 6.6-1.38 16.05-2.97 21-3.54 4.95-0.57 15.08-1.34 22.5-1.7 7.55-0.36 20.77-0.15 30 0.49 9.08 0.63 21 1.84 26.5 2.68 5.5 0.84 10.79 1.73 11.75 1.97 1.66 0.42 1.75-6.17 1.77-127.81l0.01-128.25c-14.75-3.49-20.16-4.5-21.53-4.5h-2.5z"/>
		<path id="Path 63" class="s2" d="m415 476.57c-3.57 0.77-8.52 2.02-10.98 2.78l-4.49 1.38c-0.42 196.67-0.36 254.22-0.14 254.77 0.25 0.64 4.62 0.39 12.25-0.72 6.52-0.95 19.51-2.23 28.86-2.86 9.5-0.63 22.95-0.83 30.5-0.46 7.43 0.37 18.68 1.34 25 2.15 6.32 0.82 16.9 2.79 23.5 4.38 6.6 1.59 15.15 3.98 19 5.3 3.85 1.33 11.95 4.5 18 7.05 6.05 2.55 15.95 7.35 22 10.68 6.05 3.32 11.11 5.8 11.25 5.51 0.14-0.29-1.41-3.12-3.44-6.28-2.03-3.16-7.54-9.6-12.25-14.3-4.71-4.7-12.83-11.37-18.06-14.83-5.23-3.46-14-8.47-19.5-11.15-5.5-2.68-14.73-6.43-20.5-8.33-5.77-1.91-15.23-4.43-21-5.61-5.77-1.18-16.57-2.61-24-3.19-7.43-0.57-18.9-0.77-25.5-0.45-6.6 0.33-14.14 0.94-16.76 1.35l-4.76 0.76c-0.4-189.66-0.82-228.92-1.48-229.08-0.55-0.14-3.93 0.38-7.5 1.15z"/>
		<path id="Path 64" class="s2" d="m455.5 438.93c-4.4 0.43-10.29 1.12-13.08 1.52l-5.08 0.74-0.34 248.81c3.49-0.81 11.48-1.32 20-1.66 9.65-0.39 19.46-0.17 26 0.57 5.77 0.65 15 2.25 20.5 3.54 5.5 1.3 14.05 3.92 19 5.82 4.95 1.9 12.26 5.09 16.25 7.09 3.99 2 10.29 5.51 14 7.79 3.71 2.28 10.58 6.95 15.25 10.38 4.67 3.42 12.26 10.22 16.86 15.1 5.43 5.77 9.45 11.13 11.5 15.35l3.14 6.48c0.16 51.18-0.18 69.87-0.65 74.54-0.48 4.67-1.95 12.1-3.28 16.5-1.52 5-4.29 10.81-7.39 15.5-3.36 5.09-6.92 8.95-11.06 12-3.36 2.48-8.48 5.48-11.37 6.67-2.89 1.19-8.85 2.69-13.25 3.34-6.67 0.98-9.75 0.9-18.5-0.44-5.77-0.89-14.55-3.01-19.5-4.72-4.95-1.7-13.5-5.35-19-8.09-5.5-2.75-13.82-7.48-18.5-10.52-4.68-3.03-11.2-7.58-14.5-10.1-3.3-2.52-9.38-7.74-13.5-11.6-4.13-3.85-10.61-10.39-14.42-14.52-3.8-4.14-9.75-11.35-13.21-16.02l-6.3-8.5c22.03-7.51 28.8-9.99 29.25-10.35 0.45-0.36-1.8-2.19-5-4.08-3.2-1.88-8.52-5.22-11.82-7.42-3.3-2.2-9.37-6.73-13.5-10.08-4.12-3.34-11.04-9.67-15.39-14.07-4.34-4.4-11.16-12.05-15.15-17-3.98-4.95-11.13-14.85-15.88-22-4.75-7.15-8.62-13.34-8.61-13.75 0.02-0.41-0.65-0.75-1.47-0.75-0.92 0-2.32 2.24-3.6 5.75-1.15 3.16-3.15 10.48-4.45 16.25-1.3 5.77-2.83 14.33-3.41 19-0.57 4.67-1.04 14.01-1.04 20.75 0 6.74 0.48 16.64 1.07 22 0.59 5.36 2.13 14.25 3.43 19.75 1.3 5.5 3.8 14.05 5.55 19 1.76 4.95 5.28 13.17 7.83 18.28 2.54 5.1 5.07 9.26 5.62 9.25 0.55-0.01 2.08-3.96 3.41-8.78 1.32-4.81 3.8-12.48 5.5-17.04l3.09-8.29c6.84 12.07 11.78 20.08 15.39 25.58 3.61 5.5 9.77 13.83 13.7 18.5 3.93 4.67 10.47 11.88 14.53 16.02 4.06 4.14 10.98 10.67 15.38 14.52 4.4 3.85 11.6 9.74 16 13.09 4.4 3.35 13.18 9.46 19.5 13.58 6.32 4.11 17.57 10.87 25 15.01 7.43 4.14 19.35 10.45 26.5 14.03 7.15 3.59 17.61 9.04 23.25 12.13 7.36 4.04 11.31 5.62 14 5.6 2.06-0.01 6.9-0.68 10.75-1.49 3.85-0.81 9.7-2.83 13-4.49 3.3-1.67 8.59-5.05 11.75-7.51 3.16-2.47 7.84-7.3 10.39-10.74 2.56-3.44 5.93-9.06 7.5-12.5 1.57-3.44 3.77-9.96 4.89-14.5q2.02-8.25 2.96-26.75c0.52-10.17 0.97-29.98 0.99-44l0.05-25.5c-5.06-1.82-7.77-3.73-9.28-5.42-2.2-2.46-2.74-4.04-2.72-7.83 0.02-2.84 0.78-5.96 1.89-7.75 1.02-1.65 3.14-3.54 4.72-4.2 1.57-0.66 3.76-1.28 4.86-1.37 1.1-0.09 3.01-0.11 4.25-0.05 1.24 0.07 3.86 1.58 5.83 3.37 2.81 2.54 3.71 4.23 4.13 7.75 0.37 3.08 0.03 5.53-1.08 7.75-0.9 1.79-3.09 4.15-4.88 5.25-1.79 1.09-4.04 1.99-5 2-1.64 0-1.72 1.97-1.21 31.75 0.31 17.86 0.1 37.87-0.47 45.75-0.56 7.7-1.95 17.83-3.09 22.5-1.14 4.67-3.58 11.65-5.42 15.5-2.27 4.76-5.85 9.67-11.2 15.35-6.42 6.83-9.32 9.07-15.86 12.24-4.4 2.14-10.7 4.57-14 5.41-3.3 0.83-7.24 1.51-8.75 1.51-1.51-0.01-2.73 0.33-2.72 0.74 0.02 0.41 4.19 3.52 9.25 6.9 5.07 3.39 13.05 9.5 17.72 13.58 4.67 4.08 11.05 10.54 14.16 14.34 3.11 3.81 8.07 10.76 11.01 15.43 2.95 4.67 6.02 9.98 6.84 11.79 0.82 1.81 1.72 3.29 1.99 3.28 0.27 0 1.4-1.93 2.5-4.29 1.1-2.35 4.59-8.22 7.75-13.03 3.16-4.81 9.46-12.63 14-17.38 4.54-4.75 11.85-11.45 16.25-14.9 4.4-3.44 13.4-9.61 20-13.71 6.6-4.09 23.02-13.2 36.5-20.24 13.48-7.04 29.23-15.52 35-18.84 5.77-3.32 14.1-8.37 18.5-11.21 4.4-2.85 12.5-8.53 18-12.63 5.5-4.1 13.38-10.34 17.5-13.87 4.13-3.52 11.06-10.02 15.41-14.44 4.35-4.42 10.93-11.63 14.62-16.03 3.69-4.4 10.07-12.95 14.18-19 4.11-6.05 9.41-14.6 11.78-19l4.31-8c2.89 7.75 5.52 15.51 7.71 22.25 2.83 8.69 4.34 12.03 5.2 11.5 0.67-0.41 3.33-5.25 5.92-10.75 2.59-5.5 6.05-13.83 7.68-18.5 1.64-4.67 4.19-14.35 5.68-21.5 2.04-9.77 2.85-17.1 3.26-29.5 0.34-10.25 0.07-20.86-0.7-28-0.68-6.33-2.52-16.45-4.08-22.5-1.56-6.05-3.54-12.69-4.4-14.75-0.86-2.06-1.99-3.64-2.5-3.5-0.51 0.14-4.4 5.42-8.65 11.75-4.25 6.33-10.09 14.65-12.98 18.5-2.9 3.85-8.57 10.78-12.6 15.4-4.04 4.62-11.84 12.29-17.34 17.04-5.5 4.75-13.37 10.91-17.5 13.7-4.12 2.79-10.11 6.6-13.31 8.47-3.19 1.86-5.44 3.68-5 4.04 0.45 0.36 7.01 2.83 14.59 5.5 7.58 2.67 13.77 5.08 13.75 5.35-0.02 0.27-3.05 4.55-6.74 9.5-3.7 4.95-11.91 14.34-18.25 20.87-6.35 6.52-15.14 14.67-19.54 18.09-4.4 3.42-11.37 8.47-15.5 11.21-4.12 2.74-10.87 6.81-15 9.04-4.12 2.24-11.55 5.67-16.5 7.63-4.95 1.97-13.05 4.55-18 5.75-5.53 1.34-12.47 2.21-18 2.27-4.95 0.05-11.48-0.52-14.5-1.25-3.02-0.74-8.42-2.71-12-4.38-4.3-2.01-8.53-5.11-12.5-9.15-3.3-3.36-7.43-8.8-9.18-12.1-1.75-3.29-4.22-9.58-5.5-13.98-2.26-7.78-2.32-9.1-2.32-48.52v-40.51c4.97-10.05 9.06-15.89 12.29-19.47 3.23-3.58 8.76-8.8 12.29-11.61 3.53-2.8 10.25-7.68 14.92-10.83 4.67-3.15 14.35-8.59 21.5-12.09 7.15-3.49 17.27-7.72 22.5-9.4 5.23-1.67 12.65-3.69 16.5-4.48 3.85-0.79 11.73-1.98 17.5-2.65 6.69-0.78 15.94-0.99 25.5-0.58 8.25 0.35 16.01 0.86 17.25 1.14l2.25 0.5 0.05-248.5c-5.08-1.21-12.4-2.05-19.55-2.64-7.15-0.6-19.08-0.81-26.5-0.48-7.42 0.33-18 1.29-23.5 2.12-5.5 0.84-14.95 2.85-21 4.46-6.05 1.62-14.15 4.12-18 5.57-3.85 1.44-12.17 5.29-18.5 8.55-6.33 3.26-15.77 9.11-21 13-5.23 3.89-13.04 10.53-17.37 14.75-4.33 4.22-11.19 12.06-15.25 17.42l-7.38 9.75c-0.12 10.46-0.34 14.51-0.57 15.75-0.24 1.24-0.09 2.27 0.32 2.3 0.41 0.02 2.52-2.12 4.69-4.75 2.16-2.64 7.34-8.13 11.5-12.2 4.16-4.07 11.83-10.6 17.06-14.51 5.23-3.91 13.1-9.22 17.5-11.81 4.4-2.58 12.05-6.46 17-8.61 4.95-2.15 13.27-5.33 18.5-7.07 5.23-1.75 14.9-4.25 21.5-5.58 6.6-1.32 18.3-2.92 26-3.56 7.7-0.63 18.16-0.88 23.25-0.55l9.25 0.59v20c-8.91-1.08-18.48-1.37-27-1.34-9.71 0.04-18.96 0.67-24.75 1.7-5.09 0.9-13.64 3.05-19 4.77-5.36 1.73-12.9 4.57-16.75 6.32-3.85 1.76-9.59 4.85-12.75 6.87-5.58 3.57-5.74 3.79-5.27 7.43 0.26 2.06 0.6 3.86 0.75 4 0.15 0.14 3.65-1.12 7.77-2.78 4.13-1.67 12.23-4.39 18-6.04 5.77-1.65 14.33-3.7 19-4.55 4.67-0.85 15.7-1.8 24.5-2.1 8.8-0.3 20.39-0.26 25.75 0.08l9.75 0.64-0.02 29.5c-11.22-1.31-19.88-1.44-26.48-1.15-8.09 0.37-15.26 1.38-22 3.11-5.55 1.43-14.22 4.67-19.5 7.3-9.31 4.65-9.5 4.81-9.75 8.49-0.16 2.46 0.18 3.76 1 3.77 0.69 0 3.95-0.92 7.25-2.06 3.3-1.14 9.6-2.93 14-3.99 4.4-1.06 13.17-2.42 19.5-3.04 8.68-0.85 14.2-0.83 22.5 0.07 6.05 0.66 11.56 1.37 12.25 1.6 0.93 0.3 1.25 4.38 1.25 15.9v15.5c-10.46-1.16-18.23-1.45-24-1.38-5.77 0.06-13.2 0.65-16.5 1.31-3.3 0.66-8.92 2.13-12.5 3.27-3.58 1.15-9.2 3.43-12.5 5.08-3.3 1.65-8.48 4.66-11.5 6.71-3.02 2.04-7.64 6.03-10.25 8.86-2.61 2.83-4.75 5.6-4.75 6.15 0 0.55 5.29-1.47 11.75-4.48 6.94-3.24 16.66-6.76 23.75-8.6 7.61-1.99 15.84-3.37 22.5-3.77 5.77-0.36 14.77-0.32 20 0.08 5.23 0.4 10.51 0.96 11.75 1.25 2.21 0.51 2.25 0.77 2.24 15.77l-0.01 15.25c-9.67-1.28-17.65-1.44-23.98-1.17-6.91 0.29-14.9 1.34-20 2.63-4.67 1.18-13 4.33-18.5 7.01-5.5 2.68-12.66 7.05-15.91 9.7-3.25 2.66-7.75 6.97-10 9.58-2.25 2.61-3.86 4.93-3.59 5.16 0.27 0.22 5.45-2.03 11.5-5 6.05-2.97 15.27-6.73 20.5-8.35 5.23-1.63 12.2-3.54 15.5-4.24 3.48-0.75 12.92-1.29 22.5-1.3 9.08-0.01 17.74 0.32 19.25 0.73l2.75 0.75-0.02 30.5c-17.12 0.39-26.52 1.42-32.23 2.58-5.64 1.14-14.3 3.64-19.25 5.56-4.95 1.92-12.15 5.23-16 7.36-3.85 2.12-10.37 6.24-14.5 9.14-4.12 2.89-15.6 13.17-25.5 22.82-13.75 13.41-20.95 19.57-30.47 26.05-6.85 4.67-15.34 11.19-18.85 14.49-3.51 3.3-7.57 7.87-9.03 10.15l-2.65 4.15c-3.1-5.48-6.7-9.6-10.01-12.68-3.3-3.09-12.07-9.4-19.5-14.03-11.34-7.06-15-10.01-22.99-18.48-5.23-5.54-13.77-14.36-19-19.6-5.78-5.8-13.61-12.25-20-16.51-5.77-3.84-14.55-8.72-19.5-10.84-4.95-2.11-13.05-4.92-18-6.23-4.95-1.31-13.95-2.89-20-3.52-6.05-0.62-12.68-0.97-14.74-0.77l-3.75 0.36c-0.01-28.88 0.18-30.56 1.74-31.11 0.96-0.33 7.82-0.85 15.25-1.14 10.23-0.4 16.04-0.11 24 1.22 5.77 0.96 14.32 2.99 19 4.51 4.68 1.52 13.45 5.08 19.5 7.89 6.05 2.82 11.23 4.91 11.5 4.65 0.27-0.26-1.3-2.59-3.5-5.19-2.2-2.59-6.02-6.32-8.5-8.28-2.48-1.96-7.2-5.22-10.5-7.26-3.3-2.03-9.71-5.07-14.25-6.74-4.54-1.68-12.19-3.73-17-4.56-4.81-0.83-12.8-1.47-17.75-1.43-4.95 0.05-11.36 0.39-14.24 0.76l-5.24 0.68-0.02-30.5c4.26-0.71 8.2-1.25 11.5-1.65 3.3-0.4 10.5-0.65 16-0.55 5.5 0.1 14.05 0.88 19 1.73 4.95 0.86 13.5 3.06 19 4.89 5.5 1.83 13.26 4.96 17.25 6.96 3.99 1.99 7.81 3.47 8.5 3.28 1.11 0 1.44-0.97 1.25-3.75-0.24-3.66-0.47-3.86-9.75-8.64-5.73-2.96-13.46-5.91-19.5-7.46-8.7-2.23-12.14-2.57-26.5-2.6-9.07-0.02-17.74 0.3-19.25 0.71l-2.75 0.74v-20c16.66-0.89 27.35-0.64 34.5-0.02 7.15 0.63 17.5 2 23 3.06 5.5 1.06 13.6 3 18 4.3 4.4 1.31 12.27 4.1 17.5 6.19 5.23 2.09 12.42 5.36 16 7.27 3.58 1.91 10.77 6.28 16 9.72 5.23 3.44 13.54 9.79 18.47 14.12 4.93 4.32 11.91 11.35 15.5 15.61l6.53 7.74 0.56-17.49c-8.96-13.16-16.06-21.49-21.56-26.99-5.5-5.51-14.27-13.03-19.5-16.72-5.23-3.69-14.23-9.17-20-12.17-5.77-3-15.23-7.08-21-9.08-5.77-2-13.87-4.48-18-5.51-4.12-1.03-12.23-2.62-18-3.53-5.77-0.9-17.93-1.81-27-2-9.07-0.2-20.1 0-24.5 0.43z"/>
		<path id="Path 73" fill-rule="evenodd" class="s0" d="m627.25 217.09c4.81-0.05 11.11 0.41 14 1.02 2.89 0.61 8.4 2.57 12.25 4.35 3.85 1.78 9.7 5.31 13 7.85 3.3 2.54 7.57 6.54 9.49 8.9 1.92 2.36 4.98 6.76 6.79 9.79 1.81 3.03 4.45 9.1 5.86 13.5 2.04 6.37 2.58 10.14 2.65 18.5 0.05 5.78-0.49 12.97-1.19 16-0.71 3.03-3.24 9.55-5.62 14.5-2.61 5.42-6.44 11.35-9.65 14.9-2.93 3.25-8.03 7.82-11.33 10.15-3.3 2.34-8.15 5.31-15.53 8.95l0.03 35.5 104.65 0.5 4.17 2.75c2.82 1.86 4.87 4.3 6.31 7.5 1.67 3.73 2 5.83 1.5 9.75-0.35 2.75-1.76 6.69-3.13 8.75-1.38 2.06-4.3 4.65-6.5 5.75-3.84 1.92-6 2-107 2l0.07 59.5-7.15 7.5c-3.92 4.12-8.55 9.43-10.28 11.78-1.73 2.35-3.37 4.27-3.64 4.26-0.27-0.01-1.24-1.26-2.15-2.78-0.91-1.52-5.52-6.92-18.85-21.26v-59h-51c-48.06 0-51.22-0.11-54.75-1.89-2.06-1.05-4.48-2.73-5.38-3.75-0.9-1.02-2.36-3.32-3.25-5.11-0.89-1.79-1.62-5.27-1.62-7.75 0-2.48 0.85-6.19 1.89-8.25 1.05-2.06 2.73-4.51 3.75-5.44 1.02-0.93 3.55-2.39 5.61-3.25 3.23-1.34 10.76-1.56 104.75-1.56l-0.01-35.5-7.74-3.94c-5.57-2.83-10.05-6.2-15.92-12-6.73-6.64-8.87-9.56-12.13-16.56-2.18-4.68-4.58-10.97-5.33-14-0.78-3.15-1.32-10.2-1.26-16.5 0.09-8.94 0.6-12.5 2.71-19 1.44-4.4 4.09-10.47 5.91-13.5 1.81-3.03 5.09-7.67 7.28-10.33 2.19-2.66 6.69-6.89 9.99-9.4 3.3-2.51 8.92-5.94 12.5-7.62 3.58-1.68 8.75-3.6 11.5-4.27 2.75-0.67 8.94-1.25 13.75-1.29zm-16.25 37.04c-2.48 1.43-5.81 4.12-7.41 5.98-1.6 1.87-4.06 5.86-5.46 8.89-2.06 4.42-2.57 7.07-2.59 13.52-0.04 7.03 0.35 8.81 3.15 14.5 1.76 3.56 4.75 8.05 6.66 9.98l3.47 3.5c2.86-4.55 5.9-6.88 8.68-8.16 3.14-1.46 6.86-2.32 10-2.31 2.75 0.01 6.8 0.83 9 1.82 2.2 0.99 5.24 3.23 6.75 4.98l2.75 3.17c6.2-6.97 8.98-10.91 10.17-13.25 1.5-2.93 2.32-6.74 2.64-12.25 0.33-5.72 0-9.42-1.16-13-0.89-2.75-2.91-6.8-4.49-9-1.58-2.2-5.08-5.48-7.77-7.29-2.69-1.81-6.47-3.69-8.39-4.19-1.92-0.49-5.08-1.13-7-1.41-1.92-0.28-5.98 0.04-9 0.71-3.02 0.66-7.52 2.38-10 3.81z"/>
	</g>
</svg>